<?xml version="1.0" standalone="no"?>
<!DOCTYPE svg PUBLIC "-//W3C//DTD SVG 20010904//EN"
 "http://www.w3.org/TR/2001/REC-SVG-20010904/DTD/svg10.dtd">
<svg version="1.0" xmlns="http://www.w3.org/2000/svg"
 width="4000.000000pt" height="3000.000000pt" viewBox="0 0 4000.000000 3000.000000"
 preserveAspectRatio="xMidYMid meet">

<g transform="translate(0.000000,3000.000000) scale(0.100000,-0.100000)"
fill="#000000" stroke="none">
<path d="M9713 27222 l-2012 -2017 2 -6325 c2 -5614 4 -6325 17 -6326 8 -1
1695 -2 3748 -3 l3732 -1 0 -2645 0 -2645 1230 0 1230 0 0 -1725 0 -1725 144
0 145 0 3 100 3 100 -47 0 -48 0 0 667 0 666 23 -21 c13 -12 26 -22 30 -22 4
0 7 26 7 57 l0 57 -30 -29 -30 -29 0 1052 0 1052 -1230 0 -1230 0 0 895 0 895
170 0 170 0 -2 353 -3 352 -168 0 -167 0 0 1388 0 1387 360 0 360 0 0 485 0
485 -365 0 -365 0 -2 -472 c-2 -371 -6 -473 -15 -472 -7 1 -809 2 -1783 3
l-1770 1 0 475 0 475 -370 0 -370 0 0 -477 0 -478 -1587 2 -1588 3 -3 6182 -2
6183 1958 1958 1957 1957 3023 3 c1662 1 3022 0 3022 -2 0 -3 -10 -15 -22 -28
l-21 -23 58 0 58 0 -23 25 c-13 14 -19 25 -14 25 7 0 13873 0 13896 0 4 0 9
-151 10 -336 l3 -337 98 -1 97 -1 0 437 0 438 -10137 -1 -10138 0 -2012 -2017z"/>
<path d="M31802 26773 l3 -557 95 0 95 1 3 556 2 557 -100 0 -100 0 2 -557z"/>
<path d="M31800 24050 c0 -621 -3 -1130 -7 -1130 -4 0 -17 10 -30 22 l-23 21
0 -58 0 -59 30 29 30 29 0 -1117 0 -1117 -930 0 -930 0 0 -2010 0 -2010 -50 0
-50 0 0 90 c0 73 -3 90 -15 90 -12 0 -15 -18 -15 -100 l0 -100 65 0 65 0 0
-1255 0 -1255 70 0 70 0 0 1255 c0 690 4 1255 8 1255 5 0 17 -9 27 -20 28 -31
35 -24 35 37 l0 57 -28 -27 c-37 -35 -42 -34 -42 8 0 24 5 35 15 35 8 0 15 5
15 10 0 6 -7 10 -15 10 -10 0 -15 11 -15 35 0 28 4 35 20 35 11 0 20 5 20 10
0 6 -9 10 -20 10 -20 0 -20 7 -20 1850 l0 1850 427 0 427 0 -30 -31 -29 -31
50 3 c66 3 71 7 44 35 l-22 24 426 0 427 0 0 -1870 c0 -1240 -3 -1870 -10
-1870 -5 0 -10 4 -10 8 0 12 -46 32 -71 32 -38 0 -77 -29 -89 -65 -23 -69 23
-135 95 -135 19 0 25 -5 25 -22 l0 -21 23 21 c13 12 26 22 30 22 4 0 7 -871 7
-1935 l0 -1935 -397 -1 c-219 0 -408 -2 -420 -3 -29 -3 -29 2 -1 31 l21 23
-63 0 -63 0 22 -24 c16 -17 18 -25 9 -27 -7 -2 -196 -3 -420 -1 l-408 2 0 185
0 185 -70 0 -70 0 0 -185 0 -185 -1657 -1 c-912 -1 -1662 -1 -1666 0 -4 1 -6
-45 -5 -101 l3 -103 2690 0 2690 0 5 2055 c3 1132 9 2061 14 2068 12 19 10 91
-3 106 -8 9 -11 1251 -11 4205 l0 4191 -100 0 -100 0 0 -1130z m-45 -7265 c26
-25 29 -42 19 -83 -5 -18 -9 -20 -20 -11 -11 9 -14 6 -14 -15 0 -22 -4 -26
-29 -26 -36 0 -71 40 -71 80 0 37 35 80 66 80 14 0 36 -11 49 -25z"/>
<path d="M11082 23898 l3 -483 365 0 365 0 3 483 2 482 -370 0 -370 0 2 -482z"/>
<path d="M15390 23896 l0 -484 365 -2 365 -1 0 486 0 485 -365 0 -365 0 0
-484z"/>
<path d="M19632 23898 l3 -483 363 -2 362 -3 0 485 0 485 -365 0 -365 0 2
-482z"/>
<path d="M24370 23894 l0 -485 365 2 365 1 0 484 0 484 -365 0 -365 0 0 -486z"/>
<path d="M30040 23895 l0 -485 363 2 362 3 3 483 2 482 -365 0 -365 0 0 -485z"/>
<path d="M30350 22945 l0 -115 168 0 168 0 1 115 2 115 -169 0 -170 0 0 -115z"/>
<path d="M7937 22932 l-27 -28 30 -29 30 -29 0 57 c0 31 -1 57 -3 57 -2 0 -15
-13 -30 -28z"/>
<path d="M18880 20432 c-18 -14 -21 -25 -16 -45 5 -21 17 -29 61 -43 59 -19
73 -35 49 -59 -28 -27 -94 -9 -94 26 0 5 -7 9 -15 9 -22 0 -18 -18 10 -45 43
-44 135 -24 135 29 0 30 -25 52 -78 66 -36 9 -43 15 -40 33 4 32 60 36 81 6 9
-11 21 -19 28 -17 9 3 5 13 -13 31 -32 32 -75 35 -108 9z"/>
<path d="M19040 20440 c0 -5 14 -10 30 -10 l30 0 0 -90 c0 -73 3 -90 15 -90
12 0 15 17 15 90 l0 90 35 0 c19 0 35 5 35 10 0 6 -33 10 -80 10 -47 0 -80 -4
-80 -10z"/>
<path d="M19258 20435 c-36 -20 -53 -74 -38 -120 12 -37 51 -65 90 -65 29 0
76 26 84 45 10 28 6 99 -7 116 -30 39 -83 49 -129 24z m93 -24 c30 -24 33 -89
5 -120 -41 -45 -116 -7 -116 59 0 36 35 80 65 80 12 0 33 -9 46 -19z"/>
<path d="M19440 20350 c0 -82 3 -100 15 -100 11 0 15 12 15 46 0 43 1 45 27
42 19 -2 37 -17 58 -45 24 -33 36 -42 62 -42 26 -1 33 4 42 29 9 27 14 30 55
30 41 0 45 -2 51 -30 4 -20 13 -30 24 -30 16 0 13 13 -22 100 -27 66 -46 100
-57 100 -10 0 -26 -31 -49 -93 -19 -50 -36 -94 -38 -96 -1 -2 -18 13 -37 35
l-33 38 23 19 c13 10 24 29 24 42 0 41 -25 55 -96 55 l-64 0 0 -100z m125 45
c0 -29 -2 -30 -47 -33 l-48 -3 0 36 0 36 48 -3 c45 -3 47 -4 47 -33z m164 -16
c16 -46 14 -49 -20 -49 -24 0 -30 3 -25 16 3 9 9 27 12 40 8 33 20 30 33 -7z"/>
<path d="M19875 20438 c-34 -19 -44 -41 -45 -90 0 -40 4 -50 32 -73 27 -23 39
-26 75 -22 55 6 73 21 73 63 0 33 -1 34 -40 34 -22 0 -40 -4 -40 -10 0 -5 11
-10 25 -10 20 0 25 -5 25 -25 0 -20 -6 -25 -34 -30 -61 -12 -103 29 -92 91 12
59 76 84 117 43 11 -11 25 -19 32 -16 7 2 1 14 -15 30 -29 29 -77 36 -113 15z"/>
<path d="M20050 20350 l0 -100 75 0 c43 0 75 4 75 10 0 6 -27 10 -60 10 l-60
0 0 35 0 35 55 0 c30 0 55 5 55 10 0 6 -25 10 -55 10 l-55 0 0 35 0 35 60 0
c33 0 60 4 60 10 0 6 -32 10 -75 10 l-75 0 0 -100z"/>
<path d="M18710 20122 c-34 -28 -40 -117 -10 -154 38 -50 110 -26 110 36 0 52
-56 86 -88 54 -9 -9 -12 -8 -12 6 0 46 52 78 66 41 6 -16 34 -21 34 -7 0 16
-36 42 -57 42 -12 0 -31 -8 -43 -18z m71 -93 c8 -16 8 -28 0 -45 -18 -41 -71
-25 -71 21 0 44 50 61 71 24z"/>
<path d="M18868 20129 c-10 -5 -18 -17 -18 -24 0 -20 9 -19 32 2 15 13 23 15
36 6 24 -14 21 -36 -5 -48 -28 -12 -30 -25 -3 -25 10 0 24 -9 30 -19 23 -45
-30 -81 -62 -41 -22 27 -39 23 -27 -7 11 -29 55 -40 88 -22 32 18 40 63 16 89
-11 12 -13 20 -6 25 6 3 11 17 11 30 0 38 -52 58 -92 34z"/>
<path d="M19000 20121 c0 -28 11 -52 21 -45 16 9 11 64 -6 64 -8 0 -15 -9 -15
-19z"/>
<path d="M19101 20110 c-36 -31 -37 -49 -2 -30 20 10 21 9 21 -65 0 -43 4 -75
10 -75 6 0 10 40 10 100 0 55 -1 100 -2 100 -2 -1 -18 -14 -37 -30z"/>
<path d="M19234 20119 c-14 -16 -19 -36 -19 -79 0 -65 21 -100 62 -100 42 0
63 33 63 100 0 47 -4 64 -20 80 -26 26 -62 25 -86 -1z m74 -29 c28 -54 -7
-148 -46 -124 -21 14 -30 118 -11 140 17 21 41 14 57 -16z"/>
<path d="M19370 20128 c0 -25 12 -58 21 -58 5 0 9 16 9 35 0 24 -5 35 -15 35
-8 0 -15 -6 -15 -12z"/>
<path d="M19420 20105 c0 -39 14 -47 24 -12 9 35 7 47 -9 47 -10 0 -15 -11
-15 -35z"/>
<path d="M19785 20094 c-8 -53 -4 -60 23 -45 31 16 50 13 62 -10 28 -51 -26
-103 -61 -60 -18 22 -39 28 -39 11 0 -18 40 -50 63 -50 41 0 67 27 67 69 0 46
-28 76 -65 69 -21 -4 -25 -1 -25 18 0 22 4 24 45 24 25 0 45 5 45 10 0 6 -24
10 -54 10 l-54 0 -7 -46z"/>
<path d="M19930 20130 c0 -5 22 -10 48 -10 l49 0 -28 -57 c-37 -77 -46 -123
-25 -123 9 0 16 8 16 20 0 29 38 126 55 140 33 27 17 40 -50 40 -37 0 -65 -4
-65 -10z"/>
<path d="M20090 20121 c0 -28 11 -52 21 -45 16 9 11 64 -6 64 -8 0 -15 -9 -15
-19z"/>
<path d="M20166 20124 c-19 -18 -21 -45 -5 -61 9 -9 8 -16 -5 -28 -22 -22 -20
-51 4 -75 57 -57 147 22 93 82 -9 11 -11 18 -5 18 7 0 12 13 12 30 0 46 -61
68 -94 34z m64 -19 c17 -20 5 -45 -20 -45 -23 0 -35 22 -26 45 7 19 30 19 46
0z m10 -80 c26 -32 -13 -81 -47 -59 -35 22 -23 74 17 74 10 0 23 -7 30 -15z"/>
<path d="M20300 20121 c0 -26 10 -51 21 -51 5 0 9 16 9 35 0 24 -5 35 -15 35
-8 0 -15 -9 -15 -19z"/>
<path d="M20350 20105 c0 -39 14 -47 24 -12 9 35 7 47 -9 47 -10 0 -15 -11
-15 -35z"/>
<path d="M19572 20052 l22 -39 -22 -30 c-26 -36 -27 -43 -9 -43 8 0 20 11 27
25 7 14 16 25 20 25 4 0 13 -11 20 -25 7 -14 19 -25 27 -25 18 0 17 7 -9 43
l-22 30 22 39 c26 43 11 52 -21 12 l-20 -26 -14 26 c-7 14 -20 26 -29 26 -12
0 -10 -7 8 -38z"/>
<path d="M11080 18375 l0 -485 370 0 370 0 0 485 0 485 -370 0 -370 0 0 -485z"/>
<path d="M15390 18375 l0 -485 365 0 365 0 0 485 0 485 -365 0 -365 0 0 -485z"/>
<path d="M19630 18375 l0 -485 365 0 365 0 0 485 0 485 -365 0 -365 0 0 -485z"/>
<path d="M24380 18375 l0 -485 370 0 370 0 0 485 0 485 -370 0 -370 0 0 -485z"/>
<path d="M29620 16730 l0 -100 75 0 c43 0 75 4 75 10 0 6 -27 10 -60 10 l-60
0 0 35 0 35 55 0 c30 0 55 5 55 10 0 6 -25 10 -55 10 l-55 0 0 35 0 35 60 0
c33 0 60 4 60 10 0 6 -32 10 -75 10 l-75 0 0 -100z"/>
<path d="M30202 16820 c-35 -15 -57 -75 -43 -122 21 -69 98 -92 146 -43 28 27
32 45 10 45 -8 0 -15 -4 -15 -9 0 -18 -31 -41 -55 -41 -30 0 -65 44 -65 80 0
64 70 103 107 60 20 -24 33 -26 33 -6 0 36 -67 56 -118 36z"/>
<path d="M30350 16820 c0 -5 14 -10 30 -10 l30 0 0 -90 c0 -73 3 -90 15 -90
12 0 15 17 15 90 l0 90 35 0 c19 0 35 5 35 10 0 6 -33 10 -80 10 -47 0 -80 -4
-80 -10z"/>
<path d="M30530 16730 c0 -82 3 -100 15 -100 11 0 15 12 15 45 0 41 2 45 24
45 22 0 61 -35 84 -77 5 -8 17 -13 26 -12 15 3 12 10 -17 44 l-34 39 23 19
c13 10 24 29 24 42 0 41 -25 55 -96 55 l-64 0 0 -100z m125 45 c0 -29 -2 -30
-47 -33 l-48 -3 0 36 0 36 48 -3 c45 -3 47 -4 47 -33z"/>
<path d="M30740 16730 c0 -60 4 -100 10 -100 6 0 10 40 10 100 0 60 -4 100
-10 100 -6 0 -10 -40 -10 -100z"/>
<path d="M30852 16820 c-13 -6 -30 -26 -38 -45 -18 -44 -5 -106 29 -130 33
-23 84 -19 112 10 28 27 32 45 10 45 -8 0 -15 -4 -15 -9 0 -18 -31 -41 -55
-41 -30 0 -65 44 -65 80 0 64 70 103 107 60 20 -24 33 -26 33 -6 0 36 -67 56
-118 36z"/>
<path d="M31053 16798 c-6 -18 -22 -63 -37 -100 -20 -52 -23 -68 -12 -68 8 0
19 14 25 30 9 27 14 30 55 30 31 0 46 -4 46 -13 0 -19 27 -53 35 -45 4 4 -10
50 -31 102 -41 105 -62 122 -81 64z m46 -39 c16 -46 14 -49 -20 -49 -24 0 -30
3 -25 16 3 9 9 27 12 40 8 33 20 30 33 -7z"/>
<path d="M31200 16730 l0 -100 65 0 c37 0 65 4 65 10 0 6 -22 10 -50 10 l-50
0 0 90 c0 73 -3 90 -15 90 -12 0 -15 -18 -15 -100z"/>
<path d="M31420 16730 c0 -82 3 -100 15 -100 11 0 15 12 15 45 0 41 2 45 24
45 22 0 61 -35 84 -77 5 -8 17 -13 26 -12 15 3 12 10 -17 44 l-34 39 23 19
c13 10 24 29 24 42 0 41 -25 55 -96 55 l-64 0 0 -100z m125 45 c0 -29 -2 -30
-47 -33 l-48 -3 0 36 0 36 48 -3 c45 -3 47 -4 47 -33z"/>
<path d="M32060 16731 c0 -83 3 -101 15 -101 12 0 15 16 16 78 l1 77 26 -77
c14 -43 32 -78 38 -78 7 0 26 39 42 88 l30 87 1 -87 c1 -52 5 -88 11 -88 6 0
10 40 10 100 0 90 -2 100 -18 100 -14 0 -23 -15 -36 -57 -37 -118 -35 -117
-65 -28 -22 64 -32 81 -49 83 -21 3 -22 0 -22 -97z"/>
<path d="M30207 16442 c-26 -38 -47 -72 -47 -75 0 -4 20 -7 45 -7 41 0 45 -2
45 -25 0 -16 6 -25 15 -25 9 0 15 9 15 24 0 13 6 27 13 30 10 5 10 7 0 12 -9
4 -13 28 -13 70 0 84 -13 83 -73 -4z m43 -22 c0 -38 -2 -40 -30 -40 l-30 0 26
40 c15 22 28 40 30 40 2 0 4 -18 4 -40z"/>
<path d="M30330 16491 c0 -28 11 -52 21 -45 16 9 11 64 -6 64 -8 0 -15 -9 -15
-19z"/>
<path d="M30380 16500 c0 -5 22 -10 48 -10 l49 0 -28 -57 c-37 -77 -46 -123
-25 -123 9 0 16 8 16 20 0 29 38 126 55 140 33 27 17 40 -50 40 -37 0 -65 -4
-65 -10z"/>
<path d="M30540 16498 c0 -25 12 -58 21 -58 5 0 9 16 9 35 0 24 -5 35 -15 35
-8 0 -15 -6 -15 -12z"/>
<path d="M30590 16475 c0 -39 14 -47 24 -12 9 35 7 47 -9 47 -10 0 -15 -11
-15 -35z"/>
<path d="M30968 16498 c-8 -7 -18 -21 -21 -30 -9 -25 15 -23 31 2 26 42 83 9
60 -35 -6 -11 -30 -39 -54 -61 -24 -23 -44 -47 -44 -53 0 -7 24 -11 65 -11 37
0 65 4 65 10 0 6 -20 10 -45 10 -25 0 -45 2 -45 4 0 2 20 24 45 48 49 50 57
84 27 111 -22 20 -62 22 -84 5z"/>
<path d="M31124 16489 c-14 -16 -19 -36 -19 -79 0 -86 46 -125 101 -86 16 12
19 27 19 86 0 59 -3 74 -19 86 -28 20 -60 17 -82 -7z m74 -29 c28 -54 -7 -148
-46 -124 -21 14 -30 118 -11 140 17 21 41 14 57 -16z"/>
<path d="M31260 16491 c0 -28 11 -52 21 -45 16 9 11 64 -6 64 -8 0 -15 -9 -15
-19z"/>
<path d="M31361 16480 c-36 -31 -37 -49 -2 -30 20 10 21 9 21 -65 0 -43 4 -75
10 -75 6 0 10 40 10 100 0 55 -1 100 -2 100 -2 -1 -18 -14 -37 -30z"/>
<path d="M31495 16490 c-23 -25 -30 -107 -13 -139 29 -53 86 -54 108 -1 17 42
8 129 -16 147 -26 19 -58 16 -79 -7z m73 -30 c28 -54 -7 -148 -46 -124 -21 14
-30 118 -11 140 17 21 41 14 57 -16z"/>
<path d="M31630 16491 c0 -26 10 -51 21 -51 5 0 9 16 9 35 0 24 -5 35 -15 35
-8 0 -15 -9 -15 -19z"/>
<path d="M31680 16475 c0 -39 14 -47 24 -12 9 35 7 47 -9 47 -10 0 -15 -11
-15 -35z"/>
<path d="M30742 16422 l22 -39 -22 -30 c-26 -36 -27 -43 -9 -43 8 0 20 11 27
25 7 14 16 25 20 25 4 0 13 -11 20 -25 7 -14 19 -25 27 -25 18 0 17 7 -9 43
l-22 30 22 39 c17 29 19 38 8 38 -7 0 -22 -12 -31 -27 l-18 -26 -14 26 c-7 15
-20 27 -29 27 -12 0 -10 -7 8 -38z"/>
<path d="M14766 15859 c-99 -86 -41 -239 90 -239 98 0 165 112 119 201 -23 43
-71 69 -127 69 -39 0 -54 -6 -82 -31z"/>
<path d="M19632 12478 l3 -483 23 -1 c12 -1 130 -2 262 -3 l240 -1 0 -2375 0
-2375 -180 0 -180 0 2 -382 c2 -298 6 -383 16 -384 6 -1 86 -2 177 -3 l165 -1
0 -557 0 -556 -25 23 -25 23 0 -53 0 -53 25 23 25 23 0 -666 0 -667 -70 0 -70
0 0 -100 0 -100 170 0 170 0 2 4370 3 4370 2595 0 c1427 0 2601 4 2608 8 9 6
12 34 10 103 -3 86 -5 94 -23 95 -11 0 -1184 1 -2607 2 l-2588 2 0 100 0 100
-365 0 -365 0 2 -482z"/>
<path d="M17826 7511 c-3 -4 7 -20 22 -35 l28 -26 29 30 c16 16 25 30 19 31
-74 6 -94 6 -98 0z"/>
<path d="M18822 7427 c-12 -13 -22 -26 -22 -30 0 -4 26 -7 57 -7 l57 0 -29 30
c-35 36 -36 36 -63 7z"/>
<path d="M18640 5780 c0 -82 3 -100 15 -100 11 0 15 12 15 45 l0 45 50 0 50 0
0 -45 c0 -33 4 -45 15 -45 12 0 15 18 15 100 0 82 -3 100 -15 100 -11 0 -15
-12 -15 -45 l0 -45 -50 0 -50 0 0 45 c0 33 -4 45 -15 45 -12 0 -15 -18 -15
-100z"/>
<path d="M18883 5848 c-6 -18 -22 -63 -37 -100 -20 -52 -23 -68 -12 -68 8 0
19 14 25 30 9 27 14 30 55 30 41 0 45 -2 51 -30 4 -20 13 -30 24 -30 16 0 13
13 -22 100 -45 109 -65 125 -84 68z m56 -75 c1 -8 -11 -13 -30 -13 -33 0 -33
3 -7 70 l10 25 13 -35 c8 -19 14 -41 14 -47z"/>
<path d="M19030 5780 l0 -100 65 0 c37 0 65 4 65 10 0 6 -22 10 -50 10 l-50 0
0 90 c0 73 -3 90 -15 90 -12 0 -15 -18 -15 -100z"/>
<path d="M19190 5780 l0 -100 65 0 c37 0 65 4 65 10 0 6 -22 10 -50 10 l-50 0
0 90 c0 73 -3 90 -15 90 -12 0 -15 -18 -15 -100z"/>
<path d="M18400 5542 c-34 -28 -40 -117 -10 -154 38 -50 110 -26 110 36 0 52
-56 86 -88 54 -9 -9 -12 -8 -12 6 0 46 52 78 66 41 6 -16 34 -21 34 -7 0 16
-36 42 -57 42 -12 0 -31 -8 -43 -18z m71 -93 c8 -16 8 -28 0 -45 -18 -41 -71
-25 -71 21 0 44 50 61 71 24z"/>
<path d="M18530 5541 c0 -28 11 -52 21 -45 16 9 11 64 -6 64 -8 0 -15 -9 -15
-19z"/>
<path d="M18608 5548 c-8 -7 -18 -21 -21 -30 -9 -25 15 -23 31 2 26 42 83 9
60 -35 -6 -11 -30 -39 -54 -61 -24 -23 -44 -47 -44 -53 0 -7 24 -11 65 -11 37
0 65 4 65 10 0 6 -20 10 -45 10 -25 0 -45 2 -45 4 0 2 20 24 45 48 49 50 57
84 27 111 -22 20 -62 22 -84 5z"/>
<path d="M18740 5548 c0 -25 12 -58 21 -58 5 0 9 16 9 35 0 24 -5 35 -15 35
-8 0 -15 -6 -15 -12z"/>
<path d="M18790 5525 c0 -39 14 -47 24 -12 9 35 7 47 -9 47 -10 0 -15 -11 -15
-35z"/>
<path d="M19160 5540 c-11 -11 -20 -31 -20 -45 0 -28 32 -65 56 -65 8 0 24 5
35 10 24 13 26 -6 3 -38 -17 -25 -52 -29 -60 -7 -8 19 -24 19 -24 0 0 -8 9
-19 19 -25 57 -30 101 12 101 96 0 61 -23 94 -65 94 -14 0 -34 -9 -45 -20z
m81 -21 c8 -16 8 -28 0 -45 -18 -41 -71 -25 -71 21 0 44 50 61 71 24z"/>
<path d="M19300 5541 c0 -28 11 -52 21 -45 16 9 11 64 -6 64 -8 0 -15 -9 -15
-19z"/>
<path d="M19378 5549 c-10 -5 -18 -17 -18 -24 0 -20 9 -19 32 2 15 13 23 15
36 6 24 -14 21 -36 -5 -48 -28 -12 -30 -25 -4 -25 30 0 46 -26 33 -55 -14 -30
-47 -33 -64 -5 -13 21 -38 27 -38 10 0 -18 40 -50 63 -50 55 0 90 68 52 100
-11 9 -13 16 -5 24 5 5 10 20 10 33 0 36 -53 55 -92 32z"/>
<path d="M19510 5548 c0 -25 12 -58 21 -58 5 0 9 16 9 35 0 24 -5 35 -15 35
-8 0 -15 -6 -15 -12z"/>
<path d="M19560 5525 c0 -39 14 -47 24 -12 9 35 7 47 -9 47 -10 0 -15 -11 -15
-35z"/>
<path d="M18942 5472 l22 -39 -22 -30 c-26 -36 -27 -43 -9 -43 8 0 20 11 27
25 7 14 16 25 20 25 4 0 13 -11 20 -25 7 -14 19 -25 27 -25 18 0 17 7 -9 43
l-22 30 22 39 c17 29 19 38 8 38 -7 0 -22 -12 -31 -27 l-18 -26 -14 26 c-7 15
-20 27 -29 27 -12 0 -10 -7 8 -38z"/>
<path d="M18822 4031 c13 -17 26 -30 29 -30 3 -1 18 13 34 29 l29 30 -58 0
-58 0 24 -29z"/>
</g>
</svg>
