<?xml version="1.0" standalone="no"?>
<!DOCTYPE svg PUBLIC "-//W3C//DTD SVG 20010904//EN"
 "http://www.w3.org/TR/2001/REC-SVG-20010904/DTD/svg10.dtd">
<svg version="1.0" xmlns="http://www.w3.org/2000/svg"
 width="4000.000000pt" height="3000.000000pt" viewBox="0 0 4000.000000 3000.000000"
 preserveAspectRatio="xMidYMid meet">

<g transform="translate(0.000000,3000.000000) scale(0.100000,-0.100000)"
fill="#000000" stroke="none">
<path d="M10535 26810 l-2490 -2490 -2 -7153 c-1 -3933 1 -8274 4 -9645 l6
-2492 1216 2 1216 3 0 145 0 145 -1072 3 -1073 2 0 9435 0 9435 2405 2405
2405 2405 9255 0 9255 0 0 -1507 0 -1508 145 0 145 0 0 1653 0 1652 -9463 0
-9462 0 -2490 -2490z m3775 2345 l0 -125 -60 0 -60 0 0 125 0 125 60 0 60 0 0
-125z m1500 70 c0 -30 -3 -55 -7 -55 -14 0 -1457 0 -1470 0 -9 0 -13 18 -13
55 l0 55 745 0 745 0 0 -55z m140 -70 l0 -125 -60 0 -60 0 0 125 0 125 60 0
60 0 0 -125z m150 0 l0 -125 -55 0 -55 0 0 125 0 125 55 0 55 0 0 -125z m1510
68 l0 -58 -745 0 -745 0 0 58 0 57 745 0 745 0 0 -57z m130 -68 l0 -125 -55 0
-55 0 0 125 0 125 55 0 55 0 0 -125z m2290 0 l0 -125 -55 0 -55 0 0 125 0 125
55 0 55 0 0 -125z m1510 70 l0 -55 -735 0 c-404 0 -738 0 -742 0 -5 0 -9 25
-11 55 l-3 55 746 0 745 0 0 -55z m140 -70 l0 -125 -60 0 -60 0 0 125 0 125
60 0 60 0 0 -125z m140 0 l0 -125 -60 0 -60 0 0 125 0 125 60 0 60 0 0 -125z
m1498 68 c-2 -48 -6 -58 -20 -57 -10 0 -344 1 -743 2 l-725 2 0 55 0 55 745 0
746 0 -3 -57z m142 -68 l0 -125 -60 0 -60 0 0 125 0 125 60 0 60 0 0 -125z
m2860 0 l0 -125 -55 0 -55 0 0 125 0 125 55 0 55 0 0 -125z m1510 70 c0 -37
-4 -55 -12 -55 -140 0 -1457 0 -1465 0 -9 0 -13 18 -13 55 l0 55 745 0 745 0
0 -55z m130 -70 l0 -125 -55 0 -55 0 0 125 0 125 55 0 55 0 0 -125z m150 0 l0
-125 -60 0 -60 0 0 125 0 125 60 0 60 0 0 -125z m1500 70 l0 -55 -725 -1
c-399 -1 -733 -2 -742 -3 -15 -1 -19 9 -21 57 l-3 57 746 0 745 0 0 -55z m140
-70 l0 -125 -60 0 -60 0 0 125 0 125 60 0 60 0 0 -125z m-13940 -65 l0 -60
-745 0 -745 0 0 60 0 60 745 0 745 0 0 -60z m1800 0 l0 -60 -745 0 -745 0 0
60 0 60 745 0 745 0 0 -60z m3930 0 l0 -60 -745 0 -745 0 0 60 0 60 745 0 745
0 0 -60z m1780 0 l0 -60 -745 0 -745 0 0 53 c0 30 3 57 7 60 3 4 339 7 745 7
l738 0 0 -60z m4510 0 l0 -60 -745 0 -745 0 0 60 0 60 745 0 745 0 0 -60z
m1780 0 l0 -60 -745 0 -745 0 0 60 0 60 745 0 745 0 0 -60z m-17648 -1242
l-42 -43 -90 90 -90 89 42 43 43 43 90 -90 90 -90 -43 -42z m-188 83 l38 -39
-525 -529 -526 -528 -43 43 -43 42 525 525 c289 289 527 525 530 525 3 0 23
-18 44 -39z m126 -135 c0 -6 -235 -246 -522 -533 l-523 -523 -42 42 -43 43
527 527 528 528 37 -37 c21 -20 38 -42 38 -47z m-1147 -984 l87 -88 -40 -39
-40 -39 -90 89 -90 89 37 38 c20 21 40 38 43 38 3 0 45 -40 93 -88z m-58 -232
l-40 -40 -90 90 -89 90 39 40 39 40 91 -90 90 -90 -40 -40z m-190 80 l39 -40
-527 -527 -527 -528 -42 43 -43 42 525 525 c289 289 527 525 530 525 3 0 23
-18 45 -40z m-387 -657 c-288 -288 -527 -523 -533 -523 -5 0 -26 17 -47 37
l-38 37 527 528 528 528 42 -42 43 -43 -522 -522z m-583 -583 l-40 -40 -90 90
-89 90 39 40 39 40 91 -90 90 -90 -40 -40z m-1215 -2575 l0 -55 -127 0 -128 0
2 52 c1 29 2 54 2 56 1 1 57 2 126 2 l125 0 0 -55z m-140 -820 l0 -745 -55 0
-55 0 0 745 0 745 55 0 55 0 0 -745z m140 0 l0 -745 -60 0 -60 0 0 745 0 745
60 0 60 0 0 -745z m0 -825 l0 -60 -124 0 c-132 0 -136 2 -130 50 1 14 3 35 3
48 1 22 3 22 126 22 l125 0 0 -60z m0 -166 l0 -54 -125 0 c-76 0 -125 4 -126
10 -1 13 -1 76 0 93 1 9 31 11 126 9 l125 -3 0 -55z m-140 -819 l0 -745 -54 0
c-30 0 -56 4 -58 10 -1 5 -2 341 0 745 l2 735 55 0 55 0 0 -745z m140 0 l0
-745 -60 0 -60 0 0 745 0 745 60 0 60 0 0 -745z m0 -820 l0 -55 -125 0 -125 0
0 55 0 55 125 0 125 0 0 -55z m-2 -2402 l-3 -58 -122 -3 -123 -3 0 61 0 60
125 0 126 0 -3 -57z m-138 -818 l0 -745 -55 0 -55 0 0 745 0 745 55 0 55 0 0
-745z m140 0 l0 -745 -60 0 -60 0 0 745 0 745 60 0 60 0 0 -745z m0 -820 l0
-55 -124 0 c-141 0 -140 -1 -127 100 1 6 50 10 126 10 l125 0 0 -55z m0 -135
l0 -60 -125 0 c-76 0 -125 4 -126 10 -1 6 -1 19 -1 30 0 11 0 34 1 50 l1 30
125 0 125 0 0 -60z m-140 -825 l0 -745 -55 0 c-30 0 -55 5 -55 10 0 6 0 339 0
740 0 402 0 732 0 735 0 3 25 5 55 5 l55 0 0 -745z m140 0 l0 -745 -60 0 -60
0 0 745 0 745 60 0 60 0 0 -745z m-2 -819 l3 -56 -126 0 -125 0 0 60 0 60 123
-4 122 -3 3 -57z m2 -2381 l0 -55 -125 0 c-137 0 -127 -4 -127 60 0 52 -6 50
127 50 l125 0 0 -55z m-140 -820 l0 -746 -57 3 c-32 2 -57 6 -55 11 1 4 2 338
2 742 l0 735 55 0 55 0 0 -745z m140 0 l0 -745 -60 0 -60 0 0 745 0 745 60 0
60 0 0 -745z m0 -820 l0 -55 -127 0 -128 0 0 55 0 55 128 0 127 0 0 -55z m0
-140 l0 -56 -127 3 -127 3 1 30 c2 83 -12 75 128 75 l125 0 0 -55z m-27 -74
l27 -1 -2 -742 -3 -743 -55 0 -55 0 -3 735 c-1 404 0 740 2 747 3 6 17 10 33
8 15 -2 40 -4 56 -4z m-113 -746 l0 -745 -55 0 c-50 0 -55 2 -55 23 0 12 -1
347 -3 744 l-2 723 58 0 57 0 0 -745z m140 -815 l0 -60 -128 0 -127 0 1 53 c1
28 2 55 3 60 0 4 57 7 126 7 l125 0 0 -60z"/>
<path d="M22410 28955 l-44 -45 87 0 c48 0 87 1 87 3 0 2 -19 22 -43 45 l-43
42 -44 -45z"/>
<path d="M31660 18830 l0 -3850 145 0 145 0 0 3850 0 3850 -145 0 -145 0 0
-3850z"/>
<path d="M19370 21485 l0 -145 145 0 145 0 0 145 0 145 -145 0 -145 0 0 -145z"/>
<path d="M19600 17120 c0 -143 1 -150 20 -150 18 0 20 7 20 65 l0 65 38 0 c42
0 59 -14 107 -87 20 -31 34 -43 52 -43 23 0 23 1 -17 60 -22 33 -46 60 -53 60
-7 0 3 9 21 20 58 35 65 101 15 140 -21 17 -41 20 -114 20 l-89 0 0 -150z
m182 93 c22 -20 23 -31 1 -55 -12 -14 -31 -18 -80 -18 l-63 0 0 45 0 45 62 0
c43 0 67 -5 80 -17z"/>
<path d="M19974 17260 c-32 -13 -72 -67 -80 -105 -10 -54 4 -103 41 -143 31
-35 37 -37 93 -37 51 0 65 4 87 25 37 35 55 72 55 117 0 105 -103 181 -196
143z m105 -44 c79 -41 62 -186 -24 -202 -71 -13 -125 34 -125 108 1 84 76 131
149 94z"/>
<path d="M20294 17260 c-32 -13 -72 -67 -80 -105 -10 -54 4 -103 41 -143 31
-35 37 -37 93 -37 50 0 65 4 87 25 77 71 70 191 -14 247 -35 24 -88 29 -127
13z m105 -44 c79 -41 62 -186 -24 -202 -71 -13 -125 34 -125 108 1 84 76 131
149 94z"/>
<path d="M20540 17120 c0 -143 1 -150 20 -150 19 0 20 7 21 123 l1 122 40
-122 c32 -99 44 -123 58 -123 15 0 27 25 59 123 l40 122 1 -122 c0 -116 1
-123 20 -123 19 0 20 7 20 151 l0 150 -26 -3 c-24 -3 -30 -14 -69 -122 -23
-66 -44 -115 -47 -110 -3 5 -22 60 -42 122 -37 109 -39 112 -67 112 l-29 0 0
-150z"/>
<path d="M19082 16678 c-66 -91 -98 -142 -98 -158 1 -11 16 -16 64 -18 l62 -3
0 -34 c0 -28 4 -35 20 -35 16 0 20 7 20 35 0 28 4 35 20 35 13 0 20 7 20 20 0
13 -7 20 -20 20 -19 0 -20 7 -20 95 0 114 -10 121 -68 43z m28 -78 l0 -60 -44
0 -45 0 41 60 c23 33 43 60 45 60 2 0 3 -27 3 -60z"/>
<path d="M19275 16718 c-25 -13 -45 -38 -45 -55 0 -20 34 -15 48 7 24 40 102
14 102 -33 0 -9 -33 -50 -74 -90 -41 -39 -77 -82 -81 -94 -6 -23 -5 -23 94
-23 94 0 101 1 101 20 0 18 -7 20 -70 20 -38 0 -70 3 -70 8 0 4 23 25 50 47
63 50 82 77 83 122 2 64 -77 105 -138 71z"/>
<path d="M19460 16686 c0 -41 13 -66 27 -52 3 3 8 25 10 51 5 41 4 45 -16 45
-18 0 -21 -6 -21 -44z"/>
<path d="M19606 16685 c-55 -49 -56 -79 0 -45 l34 22 0 -116 c0 -96 3 -116 15
-116 13 0 15 23 15 150 0 83 -3 150 -7 150 -5 -1 -30 -21 -57 -45z"/>
<path d="M19796 16685 c-55 -49 -56 -79 0 -45 l34 22 0 -116 c0 -96 3 -116 15
-116 13 0 15 23 15 150 0 83 -3 150 -7 150 -5 -1 -30 -21 -57 -45z"/>
<path d="M19960 16693 c0 -40 14 -72 26 -61 3 4 9 27 11 53 5 41 4 45 -16 45
-18 0 -21 -6 -21 -37z"/>
<path d="M20030 16680 c0 -61 24 -70 34 -12 9 56 8 62 -14 62 -17 0 -20 -7
-20 -50z"/>
<path d="M20622 16678 c-118 -162 -121 -178 -31 -178 l59 0 0 -35 c0 -28 4
-35 20 -35 16 0 20 7 20 35 0 28 4 35 20 35 13 0 20 7 20 20 0 13 -7 20 -20
20 -19 0 -20 7 -20 95 0 114 -10 121 -68 43z m28 -78 l0 -60 -44 0 -45 0 41
60 c23 33 43 60 45 60 2 0 3 -27 3 -60z"/>
<path d="M20799 16701 c-34 -34 -37 -51 -9 -51 11 0 20 4 20 10 0 16 40 32 65
26 48 -12 34 -86 -17 -86 -10 0 -18 -7 -18 -15 0 -10 10 -15 28 -15 33 0 52
-16 52 -45 0 -50 -71 -73 -105 -35 -19 21 -45 27 -45 9 0 -67 123 -91 170 -32
27 35 25 71 -7 105 -15 15 -22 28 -16 28 6 0 15 12 21 28 28 81 -75 136 -139
73z"/>
<path d="M21000 16686 c0 -41 13 -66 27 -52 3 3 8 25 10 51 5 41 4 45 -16 45
-18 0 -21 -6 -21 -44z"/>
<path d="M21080 16710 c0 -18 7 -20 70 -20 l70 0 -30 -46 c-31 -49 -54 -113
-66 -176 -6 -34 -4 -38 15 -38 14 0 21 6 21 19 0 40 42 152 75 201 52 78 51
80 -60 80 -88 0 -95 -1 -95 -20z"/>
<path d="M21310 16693 c0 -40 14 -72 26 -61 3 4 9 27 11 53 5 41 4 45 -16 45
-18 0 -21 -6 -21 -37z"/>
<path d="M21380 16680 c0 -61 24 -70 34 -12 9 56 8 62 -14 62 -17 0 -20 -7
-20 -50z"/>
<path d="M20241 16603 c18 -25 32 -52 32 -58 0 -6 -14 -32 -31 -58 -37 -53
-38 -57 -13 -57 10 0 30 17 46 41 l27 42 27 -42 c18 -28 33 -41 49 -41 26 0
23 9 -22 69 -14 19 -26 39 -26 44 0 4 14 28 30 52 35 51 36 55 11 55 -11 0
-28 -15 -41 -35 -12 -19 -25 -35 -29 -35 -3 0 -15 16 -25 35 -14 25 -26 35
-43 35 l-24 0 32 -47z"/>
<path d="M8385 15070 l-39 -40 39 -40 c21 -22 42 -40 45 -40 6 0 4 149 -2 156
-2 2 -22 -14 -43 -36z"/>
<path d="M31569 15100 c-4 -75 -3 -150 1 -150 3 0 24 18 45 40 l39 40 -42 43
c-26 26 -42 36 -43 27z"/>
<path d="M19398 13492 l-28 -3 0 -143 0 -143 143 1 142 1 3 143 c2 109 0 142
-10 143 -34 3 -226 4 -250 1z"/>
<path d="M31660 13285 l0 -195 -95 0 -95 0 0 -215 0 -215 95 0 95 0 0 -3667 0
-3668 -4592 3 -4592 2 32 33 c18 18 32 35 32 38 0 3 -38 5 -85 4 l-84 0 36
-37 36 -37 -59 -3 c-32 -2 -452 -2 -931 0 l-873 2 0 60 0 60 -145 0 -145 0 0
-60 c0 -50 -3 -60 -17 -61 -10 0 -46 0 -81 0 l-63 -1 3 -146 3 -147 5908 -3
5907 -2 0 4225 0 4225 -145 0 -145 0 0 -195z m-9200 -8105 l0 -130 -55 0 -55
0 0 130 0 130 55 0 55 0 0 -130z m2028 68 l3 -58 -1006 0 -1005 0 0 60 0 60
1003 -2 1002 -3 3 -57z m132 -68 l0 -131 -57 3 -58 3 -3 114 c-1 63 0 121 2
128 4 9 24 13 61 13 l55 0 0 -130z m130 0 l0 -130 -55 0 -55 0 0 130 0 130 55
0 55 0 0 -130z m2030 70 l0 -60 -1005 0 -1005 0 0 60 0 60 1005 0 1005 0 0
-60z m130 -70 l0 -130 -55 0 -55 0 0 130 0 130 55 0 55 0 0 -130z m134 10 c1
-63 0 -121 -2 -127 -3 -8 -24 -13 -58 -13 l-54 0 0 130 0 131 56 -3 56 -3 2
-115z m2026 60 l0 -60 -1005 0 -1005 0 0 60 0 60 1005 0 1005 0 0 -60z m130
-70 l0 -130 -55 0 -55 0 0 130 0 130 55 0 55 0 0 -130z m135 0 l0 -125 -57 -3
-58 -3 0 131 0 131 58 -3 57 -3 0 -125z m2025 70 l0 -60 -1005 0 -1005 0 0 53
c0 30 3 57 7 60 3 4 456 7 1005 7 l998 0 0 -60z m130 -70 l0 -130 -55 0 -55 0
0 130 0 130 55 0 55 0 0 -130z m-7002 -67 l-3 -58 -1002 -3 -1003 -2 0 60 0
60 1005 0 1006 0 -3 -57z m2292 -3 l0 -60 -1005 0 -1005 0 0 60 0 60 1005 0
1005 0 0 -60z m2290 0 l0 -60 -1005 0 -1005 0 0 60 0 60 1005 0 1005 0 0 -60z
m2290 0 l0 -60 -1002 2 -1003 3 -3 58 -3 57 1006 0 1005 0 0 -60z"/>
<path d="M13802 5183 l3 -148 1505 0 1505 0 3 139 c2 105 -1 141 -10 148 -7 4
-687 8 -1511 8 l-1498 0 3 -147z"/>
<path d="M18363 2656 c-92 -42 -56 -142 57 -160 44 -7 57 -20 40 -41 -17 -21
-64 -19 -110 5 l-40 20 0 -34 c0 -29 4 -36 31 -45 69 -24 166 -4 188 37 29 55
-2 102 -79 122 -58 15 -74 28 -59 46 15 18 67 18 103 -1 15 -8 30 -15 32 -15
9 0 3 59 -7 65 -23 15 -124 15 -156 1z"/>
<path d="M21773 2656 c-92 -42 -56 -142 57 -160 44 -7 57 -20 40 -41 -17 -21
-64 -19 -110 5 l-40 20 0 -34 c0 -29 4 -36 31 -45 69 -24 166 -4 188 37 29 55
-2 102 -79 122 -58 15 -74 28 -59 46 15 18 67 18 103 -1 15 -8 30 -15 32 -15
9 0 3 59 -7 65 -23 15 -124 15 -156 1z"/>
<path d="M18070 2525 l0 -135 100 0 100 0 0 25 c0 24 -2 25 -65 25 l-65 0 0
35 0 35 60 0 c57 0 60 1 60 25 0 24 -3 25 -60 25 -57 0 -60 1 -60 25 0 24 2
25 65 25 63 0 65 1 65 25 l0 25 -100 0 -100 0 0 -135z"/>
<path d="M18560 2635 c0 -22 4 -25 40 -25 l40 0 0 -110 0 -110 35 0 35 0 0
110 0 110 39 0 c33 0 39 3 43 25 l5 25 -118 0 -119 0 0 -25z"/>
<path d="M18820 2635 c0 -20 5 -25 25 -25 25 0 25 -1 25 -85 0 -84 0 -85 -25
-85 -20 0 -25 -5 -25 -25 0 -25 1 -25 80 -25 79 0 80 0 80 25 0 18 -5 25 -20
25 -18 0 -20 7 -20 85 0 78 2 85 20 85 15 0 20 7 20 25 0 25 -1 25 -80 25 -79
0 -80 0 -80 -25z"/>
<path d="M19030 2525 l0 -135 35 0 35 0 0 88 1 87 23 -55 c18 -44 27 -56 47
-58 22 -3 29 4 51 55 l26 58 1 -87 1 -88 35 0 35 0 0 135 0 135 -43 0 -43 0
-24 -57 c-12 -32 -26 -62 -30 -66 -4 -5 -20 21 -36 57 l-28 66 -43 0 -43 0 0
-135z"/>
<path d="M19406 2533 c-25 -71 -46 -131 -46 -135 0 -5 15 -8 34 -8 28 0 35 4
40 25 6 22 11 25 56 25 44 0 52 -3 62 -25 9 -20 19 -25 46 -25 23 0 33 4 30
13 -3 6 -25 67 -49 134 l-44 123 -41 0 -41 0 -47 -127z m113 -30 c1 -8 -11
-13 -30 -13 -33 0 -33 3 -7 70 l10 25 13 -35 c8 -19 14 -41 14 -47z"/>
<path d="M19650 2635 c0 -22 4 -25 40 -25 l40 0 0 -110 0 -110 35 0 35 0 0
110 0 110 39 0 c39 0 53 12 43 38 -3 8 -36 12 -118 12 l-114 0 0 -25z"/>
<path d="M19920 2525 l0 -135 100 0 100 0 0 25 c0 24 -2 25 -65 25 l-65 0 0
35 0 35 60 0 c57 0 60 1 60 25 0 24 -3 25 -60 25 -57 0 -60 1 -60 25 0 24 2
25 65 25 63 0 65 1 65 25 l0 25 -100 0 -100 0 0 -135z"/>
<path d="M20170 2525 l0 -137 88 4 c60 3 95 9 114 22 31 20 58 72 58 111 0 39
-27 91 -58 111 -19 13 -54 19 -114 22 l-88 4 0 -137z m150 75 c24 -13 41 -64
33 -101 -7 -37 -37 -59 -80 -59 l-33 0 0 85 0 85 31 0 c17 0 39 -4 49 -10z"/>
<path d="M20636 2533 c-25 -71 -46 -131 -46 -135 0 -5 15 -8 34 -8 28 0 35 4
40 25 6 22 11 25 56 25 44 0 52 -3 62 -25 9 -20 19 -25 46 -25 23 0 33 4 30
13 -3 6 -25 67 -49 134 l-44 123 -41 0 -41 0 -47 -127z m113 -30 c1 -8 -11
-13 -30 -13 -33 0 -33 3 -7 70 l10 25 13 -35 c8 -19 14 -41 14 -47z"/>
<path d="M20900 2525 l0 -135 35 0 35 0 0 50 c0 42 3 50 19 50 11 0 32 -20 52
-50 32 -47 37 -49 78 -50 33 0 41 3 34 13 -5 6 -24 31 -42 55 l-34 43 20 22
c27 29 34 53 27 83 -10 38 -52 54 -144 54 l-80 0 0 -135z m148 56 c4 -28 -12
-41 -50 -41 -25 0 -28 3 -28 36 0 35 1 35 38 32 30 -2 38 -7 40 -27z"/>
<path d="M21190 2525 l0 -135 100 0 100 0 0 25 c0 24 -2 25 -65 25 l-65 0 0
35 0 35 60 0 c57 0 60 1 60 25 0 24 -3 25 -60 25 -57 0 -60 1 -60 25 0 24 2
25 65 25 63 0 65 1 65 25 l0 25 -100 0 -100 0 0 -135z"/>
<path d="M21466 2533 c-25 -71 -46 -131 -46 -135 0 -5 15 -8 34 -8 28 0 35 4
40 25 6 22 11 25 56 25 44 0 52 -3 62 -25 9 -20 19 -25 46 -25 23 0 33 4 30
13 -3 6 -25 67 -49 134 l-44 123 -41 0 -41 0 -47 -127z m113 -30 c1 -8 -11
-13 -30 -13 -33 0 -33 3 -7 70 l10 25 13 -35 c8 -19 14 -41 14 -47z"/>
<path d="M15170 2202 c-62 -30 -86 -113 -56 -187 26 -62 99 -88 181 -65 l45
13 0 58 0 59 -55 0 c-42 0 -55 -3 -55 -15 0 -11 11 -15 40 -15 38 0 40 -2 40
-30 0 -37 -29 -54 -83 -47 -57 8 -79 34 -85 101 -4 51 -2 57 26 86 36 36 79
39 135 11 l37 -19 0 24 c0 42 -106 58 -170 26z"/>
<path d="M16474 2210 c-77 -31 -97 -162 -36 -231 32 -36 100 -49 142 -27 41
22 70 75 70 128 0 100 -88 166 -176 130z m97 -33 c26 -20 39 -53 39 -97 0
-100 -77 -144 -141 -81 -25 25 -29 37 -29 81 0 44 4 56 29 81 31 31 74 38 102
16z"/>
<path d="M16764 2210 c-77 -31 -97 -162 -36 -231 32 -36 100 -49 142 -27 41
22 70 75 70 128 0 100 -88 166 -176 130z m97 -33 c26 -20 39 -53 39 -97 0
-100 -77 -144 -141 -81 -25 25 -29 37 -29 81 0 44 4 56 29 81 31 31 74 38 102
16z"/>
<path d="M18178 2190 c-27 -27 -30 -36 -25 -73 8 -59 37 -81 99 -74 57 7 64
-8 22 -49 -20 -20 -33 -25 -60 -22 -28 3 -34 1 -34 -14 0 -25 55 -24 98 2 40
24 62 73 62 135 0 113 -91 166 -162 95z m104 -17 c11 -10 18 -30 18 -54 0 -33
-4 -40 -26 -45 -15 -4 -39 -3 -53 2 -21 7 -27 17 -29 45 -5 60 47 91 90 52z"/>
<path d="M18428 2213 c-10 -2 -18 -13 -18 -22 0 -16 4 -17 40 -7 51 13 74 1
78 -43 3 -27 -6 -41 -62 -100 -91 -93 -89 -101 24 -101 73 0 90 3 90 15 0 12
-15 15 -72 15 l-73 0 47 40 c87 75 109 140 63 185 -24 24 -68 31 -117 18z"/>
<path d="M18668 2213 c-10 -2 -18 -13 -18 -22 0 -16 4 -17 40 -7 51 13 74 1
78 -43 3 -27 -6 -41 -62 -100 -91 -93 -89 -101 24 -101 73 0 90 3 90 15 0 12
-15 15 -72 15 l-73 0 47 40 c87 75 109 140 63 185 -24 24 -68 31 -117 18z"/>
<path d="M19717 2202 c-10 -10 -17 -28 -17 -40 0 -13 -6 -22 -15 -22 -20 0
-19 -26 1 -34 12 -5 15 -20 14 -73 -2 -93 -2 -93 15 -93 12 0 15 16 15 85 l0
85 30 0 c20 0 30 5 30 15 0 10 -10 15 -31 15 -26 0 -30 3 -27 23 2 17 11 23
36 25 20 2 32 9 32 18 0 21 -63 18 -83 -4z"/>
<path d="M20632 2200 c-109 -67 -62 -260 64 -260 49 0 94 19 94 41 0 23 0 23
-36 4 -45 -23 -82 -19 -115 14 -25 25 -29 37 -29 81 0 44 4 56 29 81 33 33 70
37 115 14 36 -19 36 -19 36 4 0 40 -104 54 -158 21z"/>
<path d="M23283 2200 c-27 -16 -33 -26 -33 -55 0 -45 25 -70 80 -79 59 -9 80
-23 80 -51 0 -47 -68 -59 -133 -25 l-39 21 4 -23 c4 -33 44 -49 106 -45 122 9
143 133 25 152 -85 14 -114 44 -74 77 28 22 60 23 106 4 33 -14 35 -14 35 5 0
40 -102 53 -157 19z"/>
<path d="M23664 2197 c-31 -27 -45 -92 -34 -164 16 -103 128 -129 166 -38 29
71 10 190 -34 214 -33 17 -69 13 -98 -12z m88 -24 c27 -24 26 -162 -1 -187
-26 -23 -62 -17 -79 14 -16 32 -12 151 7 174 17 21 49 21 73 -1z"/>
<path d="M24712 2204 c-12 -8 -22 -26 -22 -40 0 -15 -6 -24 -15 -24 -8 0 -15
-6 -15 -14 0 -8 7 -16 15 -20 12 -4 15 -24 15 -86 0 -64 3 -80 15 -80 12 0 15
16 15 85 l0 85 30 0 c20 0 30 5 30 15 0 10 -10 15 -31 15 -26 0 -30 3 -27 23
2 17 11 23 36 25 20 2 32 9 32 18 0 19 -49 18 -78 -2z"/>
<path d="M15410 2075 l0 -135 85 0 c69 0 85 3 85 15 0 12 -14 15 -70 15 l-70
0 0 120 c0 100 -2 120 -15 120 -13 0 -15 -22 -15 -135z"/>
<path d="M15637 2083 c-26 -70 -47 -132 -47 -136 0 -23 35 3 45 33 11 34 13
35 72 38 l60 3 12 -41 c8 -28 17 -40 31 -40 17 0 17 6 -12 83 -17 45 -38 105
-48 132 -13 40 -22 51 -42 53 -23 3 -28 -4 -71 -125z m108 -10 c6 -22 3 -23
-40 -23 -41 0 -46 2 -40 18 4 9 14 37 23 62 l16 45 17 -40 c9 -22 20 -50 24
-62z"/>
<path d="M16000 2075 c0 -113 2 -135 15 -135 12 0 15 14 15 65 l0 65 60 0 c47
0 60 3 60 15 0 12 -13 15 -60 15 l-60 0 0 40 0 40 70 0 c56 0 70 3 70 15 0 12
-16 15 -85 15 l-85 0 0 -135z"/>
<path d="M16210 2075 l0 -135 85 0 c69 0 85 3 85 15 0 12 -14 15 -70 15 l-70
0 0 120 c0 100 -2 120 -15 120 -13 0 -15 -22 -15 -135z"/>
<path d="M17000 2075 c0 -113 2 -135 15 -135 12 0 15 13 15 55 0 53 1 55 28
55 21 -1 37 -14 71 -55 25 -32 51 -55 62 -55 27 0 25 5 -26 64 l-45 53 25 23
c35 32 34 82 -1 109 -20 16 -41 21 -85 21 l-59 0 0 -135z m118 93 c7 -7 12
-24 12 -40 0 -32 -24 -48 -69 -48 -30 0 -31 1 -31 50 l0 50 38 0 c21 0 43 -5
50 -12z"/>
<path d="M17452 2190 c-7 -11 -21 -20 -32 -20 -11 0 -20 -7 -20 -15 0 -10 10
-15 30 -15 l30 0 0 -85 0 -85 -30 0 c-20 0 -30 -5 -30 -15 0 -12 15 -15 75
-15 60 0 75 3 75 15 0 10 -10 15 -30 15 l-30 0 0 120 c0 90 -3 120 -13 120 -7
0 -18 -9 -25 -20z"/>
<path d="M17992 2190 c-7 -11 -21 -20 -32 -20 -11 0 -20 -7 -20 -15 0 -10 10
-15 30 -15 l30 0 0 -85 0 -85 -30 0 c-20 0 -30 -5 -30 -15 0 -12 15 -15 75
-15 60 0 75 3 75 15 0 10 -10 15 -30 15 l-30 0 0 120 c0 90 -3 120 -13 120 -7
0 -18 -9 -25 -20z"/>
<path d="M20110 2075 l0 -135 85 0 c69 0 85 3 85 15 0 12 -14 15 -70 15 l-70
0 0 50 0 50 70 0 c56 0 70 3 70 15 0 12 -14 15 -70 15 l-70 0 0 40 0 40 70 0
c56 0 70 3 70 15 0 12 -16 15 -85 15 l-85 0 0 -135z"/>
<path d="M20320 2205 c0 -2 18 -30 40 -61 22 -32 40 -62 40 -68 0 -5 -18 -36
-40 -67 -44 -63 -46 -69 -26 -69 8 0 33 25 54 55 l39 55 37 -55 c24 -36 43
-55 56 -55 18 0 14 9 -26 69 l-45 68 46 67 c39 56 44 66 27 66 -12 0 -32 -19
-53 -50 -19 -27 -37 -50 -40 -50 -4 0 -21 23 -39 50 -20 31 -39 50 -51 50 -10
0 -19 -2 -19 -5z"/>
<path d="M20850 2075 l0 -135 85 0 c69 0 85 3 85 15 0 12 -14 15 -70 15 l-70
0 0 120 c0 100 -2 120 -15 120 -13 0 -15 -22 -15 -135z"/>
<path d="M21050 2118 c0 -145 37 -192 135 -174 58 11 75 50 75 169 0 90 -1 97
-20 97 -19 0 -20 -7 -20 -103 0 -88 -3 -106 -18 -120 -23 -21 -61 -22 -90 -1
-20 14 -22 23 -22 120 0 97 -1 104 -20 104 -19 0 -20 -7 -20 -92z"/>
<path d="M21330 2075 l0 -135 55 0 c107 0 156 39 163 128 3 48 0 62 -19 86
-30 38 -76 56 -144 56 l-55 0 0 -135z m158 72 c20 -20 25 -36 25 -73 0 -40 -4
-51 -31 -76 -25 -22 -42 -28 -77 -28 l-45 0 0 106 0 107 51 -5 c37 -4 58 -12
77 -31z"/>
<path d="M21620 2075 l0 -135 85 0 c69 0 85 3 85 15 0 12 -14 15 -70 15 l-70
0 0 50 0 50 70 0 c56 0 70 3 70 15 0 12 -14 15 -70 15 l-70 0 0 40 0 40 70 0
c56 0 70 3 70 15 0 12 -16 15 -85 15 l-85 0 0 -135z"/>
<path d="M21850 2075 l0 -135 55 0 c107 0 156 39 163 128 3 48 0 62 -19 86
-30 38 -76 56 -144 56 l-55 0 0 -135z m154 76 c29 -28 38 -68 25 -114 -11 -41
-56 -67 -113 -67 l-36 0 0 106 0 107 50 -5 c34 -3 59 -13 74 -27z"/>
<path d="M22287 2083 c-26 -70 -47 -132 -47 -136 0 -23 35 3 45 33 11 34 13
35 72 38 l60 3 12 -41 c8 -28 17 -40 31 -40 17 0 17 6 -12 83 -17 45 -38 105
-48 132 -13 40 -22 51 -42 53 -23 3 -28 -4 -71 -125z m108 -10 c6 -22 3 -23
-39 -23 -25 0 -46 2 -46 4 0 2 10 30 22 62 l22 58 17 -40 c9 -21 20 -49 24
-61z"/>
<path d="M22520 2075 c0 -113 2 -135 15 -135 12 0 15 13 15 55 0 53 1 55 28
55 21 -1 37 -14 71 -55 25 -32 51 -55 62 -55 27 0 25 5 -26 64 l-45 53 25 23
c35 32 34 82 -1 109 -20 16 -41 21 -85 21 l-59 0 0 -135z m118 93 c7 -7 12
-24 12 -40 0 -32 -24 -48 -69 -48 -30 0 -31 1 -31 50 l0 50 38 0 c21 0 43 -5
50 -12z"/>
<path d="M22780 2075 l0 -135 85 0 c69 0 85 3 85 15 0 12 -14 15 -70 15 l-70
0 0 50 0 50 70 0 c56 0 70 3 70 15 0 12 -14 15 -70 15 l-70 0 0 40 0 40 70 0
c56 0 70 3 70 15 0 12 -16 15 -85 15 l-85 0 0 -135z"/>
<path d="M23027 2083 c-26 -70 -47 -132 -47 -136 0 -23 35 3 45 33 11 34 13
35 72 38 l60 3 12 -41 c8 -28 17 -40 31 -40 17 0 17 6 -12 83 -17 45 -38 105
-48 132 -13 40 -22 51 -42 53 -23 3 -28 -4 -71 -125z m108 -10 c6 -22 3 -23
-39 -23 -25 0 -46 2 -46 4 0 2 10 30 22 62 l22 58 17 -40 c9 -21 20 -49 24
-61z"/>
<path d="M19820 2170 c0 -16 -4 -30 -10 -30 -5 0 -10 -7 -10 -15 0 -8 4 -15 9
-15 4 0 11 -32 13 -72 6 -80 22 -101 73 -96 43 4 46 33 3 33 l-33 0 -3 68 -3
67 36 0 c24 0 35 4 35 15 0 10 -11 15 -35 15 -32 0 -35 2 -35 30 0 23 -4 30
-20 30 -16 0 -20 -7 -20 -30z"/>
<path d="M24810 2170 c0 -16 -4 -30 -10 -30 -5 0 -10 -7 -10 -15 0 -8 4 -15 9
-15 5 0 11 -32 13 -71 4 -80 21 -102 73 -97 43 4 46 33 3 33 l-33 0 -3 68 -3
67 36 0 c24 0 35 4 35 15 0 10 -11 15 -35 15 -32 0 -35 2 -35 30 0 23 -4 30
-20 30 -16 0 -20 -7 -20 -30z"/>
<path d="M19033 2138 c-26 -12 -37 -39 -28 -67 6 -19 35 -34 88 -46 22 -4 28
-11 25 -28 -4 -28 -46 -34 -88 -13 -28 13 -30 13 -30 -4 0 -45 95 -55 135 -15
43 43 27 78 -45 95 -39 9 -50 16 -50 31 0 27 25 34 72 22 33 -9 38 -8 38 7 0
29 -72 40 -117 18z"/>
<path d="M19225 2127 c-20 -16 -28 -35 -32 -68 -10 -85 41 -137 109 -111 l28
10 0 -44 c0 -37 3 -44 20 -44 19 0 20 7 20 134 l0 133 -46 7 c-67 9 -70 8 -99
-17z m103 -72 c3 -64 -10 -85 -54 -85 -30 0 -46 23 -48 69 -1 52 26 83 68 79
30 -3 31 -4 34 -63z"/>
<path d="M24013 2126 c-24 -21 -26 -27 -18 -52 10 -26 24 -34 88 -48 18 -4 27
-13 27 -25 0 -33 -46 -41 -93 -16 -27 14 -28 14 -25 -8 2 -16 13 -24 39 -31
48 -12 85 -1 105 30 26 40 7 69 -55 84 -40 9 -51 16 -51 31 0 27 25 34 72 22
33 -9 38 -8 38 7 0 36 -87 40 -127 6z"/>
<path d="M24215 2127 c-20 -16 -28 -35 -32 -68 -10 -85 41 -137 109 -111 l28
10 0 -44 c0 -37 3 -44 20 -44 19 0 20 7 20 134 l0 133 -46 7 c-67 9 -70 8 -99
-17z m103 -72 c3 -64 -10 -85 -54 -85 -31 0 -47 24 -47 70 0 52 26 82 67 78
30 -3 31 -4 34 -63z"/>
<path d="M17650 2115 c0 -20 5 -25 25 -25 20 0 25 5 25 25 0 20 -5 25 -25 25
-20 0 -25 -5 -25 -25z"/>
<path d="M17650 1965 c0 -20 5 -25 25 -25 20 0 25 5 25 25 0 20 -5 25 -25 25
-20 0 -25 -5 -25 -25z"/>
<path d="M19450 1965 c0 -18 5 -25 20 -25 15 0 20 7 20 25 0 18 -5 25 -20 25
-15 0 -20 -7 -20 -25z"/>
<path d="M24440 1965 c0 -18 5 -25 20 -25 15 0 20 7 20 25 0 18 -5 25 -20 25
-15 0 -20 -7 -20 -25z"/>
<path d="M16730 1640 c0 -133 1 -140 20 -140 19 0 20 7 20 140 0 133 -1 140
-20 140 -19 0 -20 -7 -20 -140z"/>
<path d="M17020 1762 c-62 -30 -86 -113 -56 -187 26 -61 100 -88 184 -66 l42
12 0 59 0 60 -55 0 c-42 0 -55 -3 -55 -15 0 -11 11 -15 40 -15 38 0 40 -2 40
-30 0 -38 -29 -54 -84 -47 -58 8 -86 43 -86 108 0 94 75 135 163 90 l37 -19 0
24 c0 42 -106 58 -170 26z"/>
<path d="M18098 1750 c-27 -27 -30 -36 -25 -73 8 -59 37 -81 99 -74 57 7 64
-8 22 -49 -20 -20 -33 -25 -60 -22 -28 3 -34 1 -34 -14 0 -25 55 -24 98 2 40
24 62 73 62 135 0 111 -92 165 -162 95z m104 -17 c11 -10 18 -30 18 -54 0 -33
-4 -40 -26 -45 -15 -4 -39 -3 -53 2 -21 7 -27 17 -29 45 -5 60 47 91 90 52z"/>
<path d="M18348 1773 c-10 -2 -18 -13 -18 -22 0 -16 4 -17 40 -7 51 13 74 1
78 -43 3 -27 -6 -41 -62 -100 -91 -93 -89 -101 24 -101 73 0 90 3 90 15 0 12
-15 15 -72 15 l-73 0 47 40 c87 75 109 140 63 185 -24 24 -68 31 -117 18z"/>
<path d="M18588 1773 c-10 -2 -18 -13 -18 -22 0 -16 4 -17 40 -7 51 13 74 1
78 -43 3 -27 -6 -41 -62 -100 -91 -93 -89 -101 24 -101 73 0 90 3 90 15 0 12
-15 15 -72 15 l-73 0 47 40 c87 75 109 140 63 185 -24 24 -68 31 -117 18z"/>
<path d="M19642 1764 c-12 -8 -22 -26 -22 -40 0 -15 -6 -24 -15 -24 -8 0 -15
-7 -15 -15 0 -8 6 -15 14 -15 11 0 14 -18 13 -82 0 -70 2 -84 16 -86 15 -3 17
8 17 82 l0 86 30 0 c20 0 30 5 30 15 0 10 -10 15 -31 15 -26 0 -30 3 -27 23 2
17 11 23 36 25 20 2 32 9 32 18 0 19 -49 18 -78 -2z"/>
<path d="M20890 1640 c0 -133 1 -140 20 -140 19 0 20 7 20 140 0 133 -1 140
-20 140 -19 0 -20 -7 -20 -140z"/>
<path d="M22328 1750 c-27 -27 -30 -36 -25 -73 8 -59 37 -81 99 -74 57 7 64
-8 22 -49 -20 -20 -33 -25 -60 -22 -28 3 -34 1 -34 -14 0 -25 55 -24 98 2 40
24 62 73 62 135 0 113 -91 166 -162 95z m104 -17 c11 -10 18 -30 18 -54 0 -33
-4 -40 -26 -45 -15 -4 -39 -3 -53 2 -21 7 -27 17 -29 45 -5 60 47 91 90 52z"/>
<path d="M22578 1773 c-10 -2 -18 -13 -18 -22 0 -16 4 -17 40 -7 51 13 74 1
78 -43 3 -27 -6 -41 -62 -100 -91 -93 -89 -101 24 -101 73 0 90 3 90 15 0 12
-15 15 -72 15 l-73 0 47 40 c87 75 109 140 63 185 -24 24 -68 31 -117 18z"/>
<path d="M22818 1773 c-10 -2 -18 -13 -18 -22 0 -16 4 -17 40 -7 51 13 74 1
78 -43 3 -27 -6 -41 -62 -100 -91 -93 -89 -101 24 -101 73 0 90 3 90 15 0 12
-15 15 -72 15 l-73 0 47 40 c87 75 109 140 63 185 -24 24 -68 31 -117 18z"/>
<path d="M23872 1764 c-12 -8 -22 -26 -22 -40 0 -15 -6 -24 -15 -24 -8 0 -15
-7 -15 -15 0 -8 7 -15 16 -15 10 0 15 -8 14 -22 -1 -13 -2 -51 -1 -85 1 -49 4
-63 16 -63 12 0 15 16 15 85 l0 85 30 0 c20 0 30 5 30 15 0 10 -10 15 -31 15
-26 0 -30 3 -27 23 2 17 11 23 36 25 20 2 32 9 32 18 0 19 -49 18 -78 -2z"/>
<path d="M15920 1755 c0 -11 12 -15 50 -15 l50 0 0 -120 c0 -100 3 -120 15
-120 13 0 15 20 15 120 l0 120 50 0 c38 0 50 4 50 15 0 12 -19 15 -115 15 -96
0 -115 -3 -115 -15z"/>
<path d="M17260 1635 l0 -135 85 0 c69 0 85 3 85 15 0 12 -14 15 -70 15 l-70
0 0 120 c0 100 -2 120 -15 120 -13 0 -15 -22 -15 -135z"/>
<path d="M17487 1643 c-26 -70 -47 -132 -47 -136 0 -23 35 3 45 33 11 34 13
35 72 38 l60 3 12 -41 c8 -28 17 -40 31 -40 17 0 17 6 -12 83 -17 45 -38 105
-48 132 -13 40 -22 51 -42 53 -23 3 -28 -4 -71 -125z m108 -10 c6 -22 3 -23
-39 -23 -25 0 -46 2 -46 4 0 2 10 30 22 62 l22 58 17 -40 c9 -21 20 -49 24
-61z"/>
<path d="M17912 1750 c-7 -11 -21 -20 -32 -20 -11 0 -20 -7 -20 -15 0 -10 10
-15 30 -15 l30 0 0 -85 0 -85 -30 0 c-20 0 -30 -5 -30 -15 0 -12 15 -15 75
-15 60 0 75 3 75 15 0 10 -10 15 -30 15 l-30 0 0 120 c0 90 -3 120 -13 120 -7
0 -18 -9 -25 -20z"/>
<path d="M22142 1750 c-7 -11 -21 -20 -32 -20 -11 0 -20 -7 -20 -15 0 -10 10
-15 30 -15 l30 0 0 -85 0 -85 -30 0 c-20 0 -30 -5 -30 -15 0 -12 15 -15 75
-15 60 0 75 3 75 15 0 10 -10 15 -30 15 l-30 0 0 120 c0 90 -3 120 -13 120 -7
0 -18 -9 -25 -20z"/>
<path d="M16360 1730 c0 -16 -4 -30 -10 -30 -5 0 -10 -7 -10 -15 0 -8 4 -15 9
-15 5 0 11 -32 13 -71 4 -80 21 -102 73 -97 43 4 46 33 3 33 l-33 0 -3 68 -3
67 36 0 c24 0 35 4 35 15 0 10 -11 15 -35 15 -32 0 -35 2 -35 30 0 23 -4 30
-20 30 -16 0 -20 -7 -20 -30z"/>
<path d="M19740 1730 c0 -16 -4 -30 -10 -30 -5 0 -10 -7 -10 -15 0 -8 4 -15 9
-15 4 0 11 -32 13 -72 6 -80 22 -101 73 -96 43 4 46 33 3 33 l-33 0 -3 68 -3
67 36 0 c24 0 35 4 35 15 0 10 -11 15 -35 15 -32 0 -35 2 -35 30 0 23 -4 30
-20 30 -16 0 -20 -7 -20 -30z"/>
<path d="M20150 1730 c0 -16 -4 -30 -10 -30 -5 0 -10 -7 -10 -15 0 -8 4 -15 9
-15 5 0 11 -32 13 -71 4 -80 21 -102 73 -97 43 4 46 33 3 33 l-33 0 -3 68 -3
67 36 0 c24 0 35 4 35 15 0 10 -11 15 -35 15 -32 0 -35 2 -35 30 0 23 -4 30
-20 30 -16 0 -20 -7 -20 -30z"/>
<path d="M20520 1730 c0 -16 -4 -30 -10 -30 -5 0 -10 -7 -10 -15 0 -8 4 -15 9
-15 5 0 11 -32 13 -71 4 -80 21 -102 73 -97 43 4 46 33 3 33 l-33 0 -3 68 -3
67 36 0 c24 0 35 4 35 15 0 10 -11 15 -35 15 -32 0 -35 2 -35 30 0 23 -4 30
-20 30 -16 0 -20 -7 -20 -30z"/>
<path d="M23970 1730 c0 -16 -4 -30 -10 -30 -5 0 -10 -7 -10 -15 0 -8 4 -15 9
-15 5 0 11 -32 13 -71 4 -80 21 -102 73 -97 43 4 46 33 3 33 l-33 0 -3 68 -3
67 36 0 c24 0 35 4 35 15 0 10 -11 15 -35 15 -32 0 -35 2 -35 30 0 23 -4 30
-20 30 -16 0 -20 -7 -20 -30z"/>
<path d="M16159 1681 c-24 -24 -29 -38 -29 -76 0 -79 65 -125 133 -94 33 15
49 45 49 94 0 49 -16 79 -49 94 -40 18 -73 13 -104 -18z m105 -23 c9 -12 16
-36 16 -53 0 -82 -85 -105 -110 -31 -11 35 0 83 23 98 23 15 56 8 71 -14z"/>
<path d="M16533 1704 c-7 -3 -13 -11 -13 -19 0 -9 12 -11 45 -7 42 4 75 -8 75
-28 0 -4 -23 -10 -50 -14 -57 -8 -90 -33 -90 -71 0 -52 61 -81 113 -54 16 9
22 9 25 0 2 -6 10 -11 18 -11 19 0 20 158 1 184 -14 19 -98 32 -124 20z m107
-122 c0 -21 -7 -32 -25 -40 -34 -16 -60 -15 -74 2 -25 30 13 64 72 65 23 1 27
-3 27 -27z"/>
<path d="M18952 1698 c-12 -6 -25 -21 -28 -34 -10 -37 11 -61 66 -74 44 -10
51 -15 48 -34 -4 -27 -47 -33 -88 -12 -28 13 -30 13 -30 -4 0 -45 95 -55 135
-15 43 43 27 78 -45 95 -39 9 -50 16 -50 31 0 27 25 34 72 22 33 -9 38 -8 38
7 0 29 -72 40 -118 18z"/>
<path d="M19145 1687 c-20 -16 -28 -35 -32 -68 -10 -85 41 -137 109 -111 l28
10 0 -44 c0 -37 3 -44 20 -44 19 0 20 7 20 134 l0 133 -46 7 c-67 9 -70 8 -99
-17z m100 -77 c0 -62 -1 -65 -28 -74 -36 -13 -58 0 -69 40 -9 32 6 90 25 98 7
3 26 4 42 3 l30 -2 0 -65z"/>
<path d="M20319 1681 c-24 -24 -29 -38 -29 -76 0 -79 65 -125 133 -94 33 15
49 45 49 94 0 49 -16 79 -49 94 -40 18 -73 13 -104 -18z m105 -23 c9 -12 16
-36 16 -53 0 -82 -85 -105 -110 -31 -11 35 0 83 23 98 23 15 56 8 71 -14z"/>
<path d="M20693 1704 c-7 -3 -13 -11 -13 -19 0 -9 12 -11 45 -7 42 4 75 -8 75
-28 0 -4 -23 -10 -50 -14 -57 -8 -90 -33 -90 -71 0 -52 61 -81 113 -54 16 9
22 9 25 0 2 -6 10 -11 18 -11 19 0 20 158 1 184 -14 19 -98 32 -124 20z m107
-122 c0 -21 -7 -32 -25 -40 -34 -16 -60 -15 -74 2 -25 30 13 64 72 65 23 1 27
-3 27 -27z"/>
<path d="M21137 1703 c-21 -20 -4 -30 42 -25 42 4 51 1 60 -16 10 -18 6 -20
-40 -26 -56 -8 -89 -33 -89 -71 0 -52 61 -81 113 -54 16 9 22 9 25 0 2 -6 10
-11 18 -11 11 0 14 18 14 83 0 88 -3 98 -37 116 -23 12 -95 15 -106 4z m113
-121 c0 -21 -7 -32 -25 -40 -34 -16 -60 -15 -74 2 -25 30 13 64 72 65 23 1 27
-3 27 -27z"/>
<path d="M21540 1697 c-31 -16 -50 -52 -50 -99 0 -51 33 -88 85 -94 46 -6 95
9 95 29 0 12 -7 12 -41 3 -47 -12 -86 4 -100 42 -8 22 -7 22 66 22 l75 0 0 30
c0 63 -69 98 -130 67z m84 -33 c27 -27 18 -34 -44 -34 -57 0 -60 1 -50 19 17
33 68 41 94 15z"/>
<path d="M21743 1703 c-7 -2 -13 -10 -13 -17 0 -10 14 -12 49 -8 42 4 51 1 60
-16 10 -18 6 -20 -40 -26 -56 -8 -89 -33 -89 -71 0 -52 61 -81 113 -54 16 9
22 9 25 0 2 -6 10 -11 18 -11 11 0 14 18 14 83 0 45 -4 87 -8 93 -18 28 -90
43 -129 27z m107 -121 c0 -21 -7 -32 -25 -40 -34 -16 -60 -15 -74 2 -25 30 13
64 72 65 23 1 27 -3 27 -27z"/>
<path d="M23182 1698 c-49 -24 -36 -92 20 -103 60 -12 68 -16 68 -35 0 -31
-47 -39 -92 -16 -26 14 -28 13 -28 -4 0 -45 95 -56 135 -15 43 43 27 78 -45
95 -39 9 -50 16 -50 31 0 27 25 34 72 22 33 -9 38 -8 38 7 0 29 -72 40 -118
18z"/>
<path d="M23375 1687 c-20 -16 -28 -35 -32 -68 -10 -85 41 -137 109 -111 l28
10 0 -44 c0 -37 3 -44 20 -44 19 0 20 7 20 134 l0 133 -46 7 c-67 9 -70 8 -99
-17z m93 -16 c9 -5 12 -26 10 -67 -3 -54 -5 -59 -31 -68 -36 -13 -60 1 -68 40
-6 35 6 84 23 96 17 10 49 10 66 -1z"/>
<path d="M21340 1600 c0 -93 1 -100 20 -100 18 0 20 7 20 75 0 81 10 95 64 95
16 0 26 6 26 15 0 18 -33 20 -63 4 -16 -9 -22 -9 -25 0 -2 6 -12 11 -23 11
-17 0 -19 -8 -19 -100z"/>
<path d="M19370 1525 c0 -18 5 -25 20 -25 15 0 20 7 20 25 0 18 -5 25 -20 25
-15 0 -20 -7 -20 -25z"/>
<path d="M19915 1538 c-7 -24 -25 -93 -25 -100 0 -5 6 -8 13 -8 7 0 22 23 33
52 10 29 21 56 22 60 2 4 -6 8 -17 8 -12 0 -23 -6 -26 -12z"/>
<path d="M23600 1525 c0 -18 5 -25 20 -25 15 0 20 7 20 25 0 18 -5 25 -20 25
-15 0 -20 -7 -20 -25z"/>
</g>
</svg>
